<?xml version="1.0" standalone="no"?>
<!DOCTYPE svg PUBLIC "-//W3C//DTD SVG 20010904//EN"
 "http://www.w3.org/TR/2001/REC-SVG-20010904/DTD/svg10.dtd">
<svg version="1.0" xmlns="http://www.w3.org/2000/svg"
 width="604.000000pt" height="522.000000pt" viewBox="0 0 604.000000 522.000000"
 preserveAspectRatio="xMidYMid meet">

<g transform="translate(0.000000,522.000000) scale(0.100000,-0.100000)"
fill="#000000" stroke="none">
<path d="M3689 4166 c-175 -27 -289 -85 -321 -162 -9 -22 -37 -104 -62 -184
-26 -80 -63 -176 -84 -215 l-37 -70 -985 -6 c-619 -3 -1000 -9 -1025 -16 -281
-71 -527 -321 -661 -670 -45 -119 -74 -225 -100 -368 -26 -141 -26 -526 0
-670 65 -364 180 -608 386 -816 104 -105 192 -163 312 -207 l73 -27 1765 -3
c1361 -2 1779 0 1825 9 150 31 290 113 413 244 415 438 516 1314 222 1932 -62
130 -126 229 -209 322 -85 95 -161 153 -264 201 -121 57 -202 70 -427 70 -104
0 -190 1 -190 3 0 1 13 96 29 210 32 232 31 250 -21 305 -74 76 -217 119 -423
127 -81 3 -162 -1 -216 -9z m299 -186 c41 -5 92 -15 115 -21 l42 -12 -30 -12
c-37 -16 -188 -35 -275 -35 -70 0 -151 11 -221 31 l-44 12 38 13 c82 29 253
40 375 24z m-388 -242 c134 -35 441 -34 537 3 22 8 23 7 17 -34 -41 -285 -106
-470 -270 -769 -19 -35 -24 -55 -19 -78 14 -63 96 -91 148 -50 50 40 166 263
228 440 l32 91 236 -3 c197 -3 244 -6 286 -22 61 -22 181 -95 213 -129 l24
-25 -132 -4 c-130 -3 -132 -3 -156 -31 -32 -37 -32 -87 0 -124 l24 -28 208 -5
207 -5 33 -60 c45 -82 110 -270 133 -390 36 -184 52 -414 35 -517 l-6 -37
-422 -3 c-387 -3 -424 -5 -449 -21 -56 -37 -58 -111 -4 -151 28 -20 40 -21
437 -24 l409 -3 -6 -32 c-9 -50 -63 -216 -89 -274 l-23 -53 -701 0 -702 0 -29
-29 c-37 -38 -39 -88 -5 -128 l24 -28 649 -5 648 -5 -85 -85 c-89 -89 -163
-136 -259 -164 -49 -14 -208 -16 -1520 -16 -1259 0 -1463 2 -1445 14 11 8 48
48 83 90 l64 76 416 0 c379 0 418 2 437 18 51 41 54 100 8 143 l-26 24 -360 3
c-197 1 -358 6 -356 10 2 4 21 53 43 110 l40 102 435 1 c309 0 445 4 470 12
25 9 40 23 53 50 18 36 18 38 0 75 -29 60 -38 61 -495 61 -225 1 -408 4 -408
9 0 4 7 59 16 122 17 131 22 334 10 462 l-8 87 315 3 315 3 26 24 c58 54 35
139 -42 161 -22 6 -164 10 -344 10 l-308 0 -6 28 c-3 15 -21 74 -41 132 -69
206 -169 378 -296 508 l-61 62 624 0 625 -1 -73 -69 c-101 -96 -190 -152 -366
-232 -198 -90 -192 -86 -205 -115 -17 -38 -13 -69 14 -101 41 -49 63 -48 183
4 274 119 434 223 582 381 129 138 232 307 295 486 22 62 31 77 44 72 9 -4 50
-16 91 -27z m-2172 -414 c201 -58 365 -223 482 -484 282 -624 124 -1522 -318
-1811 -103 -68 -157 -84 -277 -84 -117 0 -172 16 -266 76 -211 137 -368 414
-440 779 -20 99 -23 146 -23 340 0 220 5 269 40 420 26 109 93 295 94 260 0
-8 -5 -31 -10 -50 -22 -74 -42 -292 -43 -445 0 -464 131 -880 342 -1082 25
-24 80 -60 120 -81 73 -36 78 -37 186 -37 106 0 114 1 178 34 146 74 258 230
312 437 47 179 67 569 41 789 -33 270 -90 425 -198 533 -135 136 -297 135
-434 -2 -71 -72 -111 -139 -152 -257 -53 -150 -67 -251 -67 -469 1 -250 28
-381 113 -545 52 -98 108 -155 154 -155 46 0 85 31 94 75 5 29 0 44 -27 87
-172 267 -196 725 -54 1024 38 78 110 154 147 154 70 0 140 -81 181 -207 37
-112 46 -167 58 -334 21 -299 -20 -652 -91 -791 -52 -100 -150 -181 -235 -194
-60 -9 -143 26 -202 85 -86 86 -176 266 -217 436 -46 188 -50 235 -50 495 -1
222 2 270 22 372 59 310 183 551 321 623 56 29 137 33 219 9z"/>
<path d="M3733 3518 c-12 -13 -44 -72 -72 -132 -57 -121 -104 -200 -198 -327
-74 -102 -80 -133 -34 -180 33 -33 69 -37 109 -13 85 50 352 494 352 586 0 14
-12 40 -26 57 -21 26 -33 31 -68 31 -31 0 -48 -6 -63 -22z"/>
<path d="M3198 2603 c-33 -5 -78 -56 -78 -88 0 -13 5 -35 11 -48 19 -43 52
-52 180 -52 103 0 121 2 145 21 61 45 46 136 -26 161 -33 11 -173 15 -232 6z"/>
<path d="M5055 2380 l-60 -60 58 -57 57 -58 60 60 60 60 -58 58 -58 57 -59
-60z"/>
<path d="M3909 2405 c-54 -30 -61 -104 -14 -151 l24 -24 454 0 454 0 27 26
c38 39 39 95 0 134 l-24 25 -448 2 c-373 2 -451 0 -473 -12z"/>
<path d="M2757 2102 l-57 -58 60 -59 60 -59 60 59 60 59 -57 58 c-32 32 -60
58 -63 58 -3 0 -31 -26 -63 -58z"/>
<path d="M3098 2124 c-68 -36 -63 -126 9 -163 35 -18 466 -15 502 3 68 36 65
128 -6 165 -35 18 -471 14 -505 -5z"/>
<path d="M4175 1920 l-59 -60 59 -60 60 -60 60 60 60 60 -60 60 -60 60 -60
-60z"/>
<path d="M3380 1717 c-72 -25 -87 -116 -26 -161 25 -19 41 -21 171 -21 138 0
144 1 169 24 58 54 35 139 -42 161 -50 13 -229 12 -272 -3z"/>
<path d="M3427 1362 l-57 -58 60 -59 60 -59 60 59 60 59 -57 58 c-32 32 -60
58 -63 58 -3 0 -31 -26 -63 -58z"/>
</g>
</svg>
