<svg xmlns="http://www.w3.org/2000/svg" xmlns:xlink="http://www.w3.org/1999/xlink" viewBox="0 0 1897.09 1069.2"><defs><style>.cls-1{fill:url(#linear-gradient);}.cls-2{fill:url(#linear-gradient-2);}.cls-3{fill:url(#radial-gradient);}.cls-4{fill:url(#linear-gradient-3);}.cls-5{fill:url(#radial-gradient-2);}.cls-6{fill-opacity:0.32;}.cls-7{fill-opacity:0.33;}.cls-8{fill:url(#linear-gradient-4);}.cls-9{fill:url(#linear-gradient-5);}.cls-10{fill:url(#linear-gradient-6);}.cls-11{fill:url(#linear-gradient-7);}.cls-12{fill-opacity:0.29;}.cls-13{fill:url(#linear-gradient-8);}.cls-14{fill:#792100;}.cls-15{fill:url(#linear-gradient-9);}.cls-16{fill:url(#linear-gradient-10);}.cls-17{fill:url(#linear-gradient-11);}.cls-18{fill:url(#linear-gradient-12);}.cls-19{fill:url(#linear-gradient-13);}.cls-20{fill:url(#linear-gradient-14);}.cls-21{fill:url(#linear-gradient-15);}.cls-22{fill:url(#linear-gradient-16);}.cls-23{fill:url(#linear-gradient-17);}.cls-24{fill-opacity:0.26;}.cls-25{fill-opacity:0.28;}.cls-26{fill-opacity:0.41;}.cls-27{fill:url(#linear-gradient-18);}.cls-28{fill:url(#linear-gradient-19);}.cls-29{fill:url(#linear-gradient-20);}</style><linearGradient id="linear-gradient" x1="-2254.89" y1="-335.48" x2="-2245.79" y2="-353.07" gradientTransform="matrix(52.63, 0, 0, -52.63, 119798.74, -17666.03)" gradientUnits="userSpaceOnUse"><stop offset="0" stop-color="#5b779e"/><stop offset="0.4" stop-color="#2d3b50"/><stop offset="1" stop-color="#0c0e14"/></linearGradient><linearGradient id="linear-gradient-2" x1="-2281.5" y1="-287.06" x2="-2278.74" y2="-293.1" gradientTransform="matrix(52.63, 0, 0, -52.63, 121375.32, -14917.82)" gradientUnits="userSpaceOnUse"><stop offset="0" stop-opacity="0"/><stop offset="1" stop-opacity="0.62"/></linearGradient><radialGradient id="radial-gradient" cx="-2589.84" cy="-155.08" r="7.5" gradientTransform="matrix(80.02, -17.14, -8.46, -43.84, 207159.24, -51005.56)" gradientUnits="userSpaceOnUse"><stop offset="0" stop-color="#e6f1fd"/><stop offset="0" stop-color="#bdd9f9"/><stop offset="0.07" stop-color="#bdd9f9"/><stop offset="1" stop-color="#1c3556" stop-opacity="0.1"/></radialGradient><linearGradient id="linear-gradient-3" x1="-2288.58" y1="-286.5" x2="-2283.81" y2="-296.79" xlink:href="#linear-gradient-2"/><radialGradient id="radial-gradient-2" cx="-2588.69" cy="-150.45" r="7.5" gradientTransform="matrix(80.02, -17.14, -8.46, -43.84, 207003.63, -50650.99)" xlink:href="#radial-gradient"/><linearGradient id="linear-gradient-4" x1="-2184.8" y1="-339.05" x2="-2182.19" y2="-341.37" gradientTransform="matrix(52.63, 0, 0, -52.63, 116677.95, -17733.61)" gradientUnits="userSpaceOnUse"><stop offset="0" stop-color="#fdec97"/><stop offset="0.35" stop-color="#fdec97"/><stop offset="0.51" stop-color="#fdec97"/><stop offset="0.63" stop-color="#db990f"/><stop offset="1" stop-color="#db990f"/></linearGradient><linearGradient id="linear-gradient-5" x1="-2184.7" y1="-355.27" x2="-2181.93" y2="-352.45" gradientTransform="matrix(52.63, 0, 0, -52.63, 116677.95, -17733.61)" gradientUnits="userSpaceOnUse"><stop offset="0" stop-color="#ffdc76"/><stop offset="0.33" stop-color="#e4903b"/><stop offset="0.45" stop-color="#ca4400"/><stop offset="0.58" stop-color="#fdec97"/><stop offset="0.7" stop-color="#db990f"/><stop offset="1" stop-color="#db990f"/></linearGradient><linearGradient id="linear-gradient-6" x1="-2197.02" y1="-354.77" x2="-2198.87" y2="-352.74" xlink:href="#linear-gradient-5"/><linearGradient id="linear-gradient-7" x1="-2198.8" y1="-341.5" x2="-2196.29" y2="-339.03" gradientTransform="matrix(52.63, 0, 0, -52.63, 116677.95, -17733.61)" gradientUnits="userSpaceOnUse"><stop offset="0" stop-color="#ca4400"/><stop offset="0.35" stop-color="#ca4400"/><stop offset="0.51" stop-color="#fdec97"/><stop offset="0.63" stop-color="#db990f"/><stop offset="1" stop-color="#db990f"/></linearGradient><linearGradient id="linear-gradient-8" x1="-2195.39" y1="-341.71" x2="-2193.07" y2="-352.06" gradientTransform="matrix(52.63, 0, 0, -52.63, 116677.95, -17733.61)" gradientUnits="userSpaceOnUse"><stop offset="0" stop-color="#da940f"/><stop offset="0.23" stop-color="#efd11a"/><stop offset="0.75" stop-color="#efd11a"/><stop offset="0.91" stop-color="#efd11a"/><stop offset="1" stop-color="#d3900e"/></linearGradient><linearGradient id="linear-gradient-9" x1="-2193.98" y1="-341.66" x2="-2191.92" y2="-351.43" gradientTransform="matrix(52.63, 0, 0, -52.63, 116677.95, -17733.61)" gradientUnits="userSpaceOnUse"><stop offset="0" stop-color="#c63000"/><stop offset="0.49" stop-color="#db9000"/><stop offset="0.8" stop-color="#db9000"/><stop offset="1" stop-color="#c43b00"/></linearGradient><linearGradient id="linear-gradient-10" x1="-2190.02" y1="-346.3" x2="-2191.53" y2="-352.58" gradientTransform="matrix(52.63, 0, 0, -52.63, 116677.95, -17733.61)" gradientUnits="userSpaceOnUse"><stop offset="0" stop-color="#ad2f00"/><stop offset="1" stop-color="#cb7500"/></linearGradient><linearGradient id="linear-gradient-11" x1="-2190.06" y1="-343.31" x2="-2192.2" y2="-349.91" gradientTransform="matrix(52.63, 0, 0, -52.63, 116677.95, -17733.61)" gradientUnits="userSpaceOnUse"><stop offset="0" stop-color="#ecd500"/><stop offset="0.87" stop-color="#ecd500"/><stop offset="1" stop-color="#ffef57"/></linearGradient><linearGradient id="linear-gradient-12" x1="-2194.55" y1="-341.59" x2="-2194.03" y2="-342.71" gradientTransform="matrix(52.63, 0, 0, -52.63, 116677.95, -17733.61)" gradientUnits="userSpaceOnUse"><stop offset="0" stop-color="#ffd511"/><stop offset="1" stop-color="#fdf8dc"/></linearGradient><linearGradient id="linear-gradient-13" x1="-2190.92" y1="-343.12" x2="-2188.44" y2="-351.69" gradientTransform="matrix(52.63, 0, 0, -52.63, 116677.95, -17733.61)" gradientUnits="userSpaceOnUse"><stop offset="0" stop-color="#bd3300"/><stop offset="0.19" stop-color="#bd3300"/><stop offset="0.41" stop-color="#cb8500"/><stop offset="1" stop-color="#c26f00"/></linearGradient><linearGradient id="linear-gradient-14" x1="-2191" y1="-346.45" x2="-2189.35" y2="-352.16" gradientTransform="matrix(52.63, 0, 0, -52.63, 116677.95, -17733.61)" gradientUnits="userSpaceOnUse"><stop offset="0" stop-color="#ffd303"/><stop offset="0.9" stop-color="#ffd303"/><stop offset="1" stop-color="#d27e00"/></linearGradient><linearGradient id="linear-gradient-15" x1="-2185.73" y1="-341.45" x2="-2187.59" y2="-352.69" gradientTransform="matrix(52.63, 0, 0, -52.63, 116677.95, -17733.61)" gradientUnits="userSpaceOnUse"><stop offset="0" stop-color="#a51f00"/><stop offset="0.29" stop-color="#c67200"/><stop offset="0.64" stop-color="#c67200"/><stop offset="1" stop-color="#c25500"/></linearGradient><linearGradient id="linear-gradient-16" x1="-2187.13" y1="-341.67" x2="-2189" y2="-351.62" gradientTransform="matrix(52.63, 0, 0, -52.63, 116677.95, -17733.61)" gradientUnits="userSpaceOnUse"><stop offset="0" stop-color="#cd7c00"/><stop offset="0.31" stop-color="#eed700"/><stop offset="1" stop-color="#eed700"/></linearGradient><linearGradient id="linear-gradient-17" x1="-2186.57" y1="-341.6" x2="-2186.09" y2="-342.55" xlink:href="#linear-gradient-12"/><linearGradient id="linear-gradient-18" x1="-2200.73" y1="-351.37" x2="-2179.55" y2="-342.55" gradientTransform="matrix(52.63, 0, 0, -52.63, 116677.95, -17733.61)" gradientUnits="userSpaceOnUse"><stop offset="0" stop-color="#51290e"/><stop offset="0.35" stop-color="#d08e29"/><stop offset="0.42" stop-color="#e1d02d"/><stop offset="0.5" stop-color="#f6e57f"/><stop offset="0.54" stop-color="#f6e57f"/><stop offset="0.6" stop-color="#e1d02d"/><stop offset="0.69" stop-color="#d08e29"/><stop offset="1" stop-color="#452a15"/></linearGradient><linearGradient id="linear-gradient-19" x1="-2184.66" y1="-355.42" x2="-2195.91" y2="-339.48" gradientTransform="matrix(52.63, 0, 0, -52.63, 116648.1, -17786.77)" gradientUnits="userSpaceOnUse"><stop offset="0" stop-color="#ffe12b"/><stop offset="0.14" stop-color="#fff7c7" stop-opacity="0"/><stop offset="0.82" stop-color="#fff7c7" stop-opacity="0"/><stop offset="1" stop-color="#ffe12b"/></linearGradient><linearGradient id="linear-gradient-20" y1="534.8" x2="1894.5" y2="534.8" gradientTransform="matrix(1, 0, 0, -1, 0, 1069.4)" gradientUnits="userSpaceOnUse"><stop offset="0" stop-color="#ff9309" stop-opacity="0.98"/><stop offset="0.16" stop-color="#ff9209"/><stop offset="0.34" stop-color="#ff9808" stop-opacity="0.91"/><stop offset="0.61" stop-color="#ffbe00" stop-opacity="0.6"/><stop offset="0.77" stop-color="#ffe700" stop-opacity="0.3"/><stop offset="0.88" stop-color="#fffc24" stop-opacity="0.2"/><stop offset="0.97" stop-color="#feffec" stop-opacity="0.1"/></linearGradient></defs><title>Asset 1</title><g id="Layer_2" data-name="Layer 2"><g id="Layer_1-2" data-name="Layer 1"><path class="cls-1" d="M1827.54,532.9c.1,255.4-191.1,462.5-426.9,462.5s-427.1-206.9-427.2-462.3v-.3c0-255.3,191.1-462.4,426.9-462.5s427.1,206.9,427.2,462.3Z"/><path class="cls-2" d="M1442.24,76.7l-171,11.3a21.58,21.58,0,0,0-10.7,3.5l-149.6,101.3c-10.6,6.9-13.9,21.6-7.4,32.8a23.43,23.43,0,0,0,6.7,7.3c19.7,14,39.3,30.1,44.7,45,11.8,33,25.2,81.3,36.7,123.1,5,18.6,10.4,37.1,16,55.6,2.4,7.7,4.4,14.6,6.7,20.4s3.7,10.2,9.4,16.9a17.83,17.83,0,0,0,2.7,2.1c10.1,8.7,20.6,13.4,33.4,17.6a294.52,294.52,0,0,0,41.4,9.9,258.84,258.84,0,0,0,39.4,3.5c12,.2,20.5,3,34.7-6.3a14.29,14.29,0,0,0,2-1.4c6.1-5.1,6.7-8.5,8-11.3a71.28,71.28,0,0,0,3.3-7.7c1.9-5.5,3.5-11.7,5.3-19a781.91,781.91,0,0,0,18-107.6c1.5-15.9,3.4-26.5,0-40.8-.2-.7.2-1.4,0-2.1h-.7c-3.4-17.4-12.2-42.6-27.4-71a217.46,217.46,0,0,0-53.4-65.4c.8-.9,2.5-2.4,6.7-4.2l83.5.7a21.11,21.11,0,0,0,7.4-1.4c2-.7,4,.8,14-4.2a34.56,34.56,0,0,0,14-14.1,46.1,46.1,0,0,0,4.7-16.2l5.3-51.3c1.5-13.1-7.3-25-19.7-26.6a10.81,10.81,0,0,0-4.1-.4Z"/><path id="b" class="cls-3" d="M1443.64,100.6l-5.3,51.3c-1.5,14.6-7.3,11-17.6,14.5l-88-.3c-25.9,8.8-28.8,23.3-27,35.7,49.3,28.9,80.1,110.8,84.5,135.1,6.3,23.5-18.1,155.9-26.7,163.2-14.6,9.6-101.1-3.8-122.9-22.5-11.7-13.8-39.3-138.8-64.1-208.2-9.1-24.8-33.7-42.3-53.4-56.3l149.6-101.3Z"/><path class="cls-4" d="M1016.84,361.6c-8.3.8-15.2,7-17.4,15.5L948,562.1a21.51,21.51,0,0,0,8,23.2c19.7,14,40.1,30.3,46.1,46.4a24.3,24.3,0,0,0,2,3.5,16.52,16.52,0,0,1,.7,2.1c.9,4.2,2,11.5,3.3,19.7,2.7,16.5,6.5,38.8,11.3,61.9s10.9,46.9,20,67.5,21.3,39.7,42.7,47.1c-5.2-1.8-.9.2,2,2.1s6.7,4.5,11.3,7.7c9.4,6.5,21.3,14.7,33.4,23.2s24.2,17.5,34.1,23.9c4.9,3.2,9.4,5.6,13.4,7.7a47.46,47.46,0,0,0,6,2.8c2.3.9,3.6,3.1,12.7,1.4,10.5-2,13.7-8.1,15.4-11.3s2-5.5,2.7-7.7a97,97,0,0,0,3.3-14.1c1.6-10.2,2.7-22.9,4-35.2s2.7-24.7,4-33.1c.6-3.4,1-4.9,1.3-6.3,1.5-1.3,3.6-1.1,4.7-2.8,4.4-6.5,4.9-13.2,4.7-18.3-.4-10.2-3.5-18.1-7.4-26.7-7.8-17.4-20.5-37.3-34.7-58.4-27.4-40.7-58.8-80.7-72.8-97.1-1.2-4.1-1.8-8.2-3.3-12.6-1.9-5.5-4-11.6-5.3-16.9,29.6,13.3,60.2,25.3,94.2,29.5a17.62,17.62,0,0,0,6-.7,119.72,119.72,0,0,0,30.7-9.9c5.8-2.7,11.9-5.6,17.4-10.6s11.6-13,12.7-23.9a22.44,22.44,0,0,0-3.3-14.1c-38-59.8-92.6-75.1-149.6-97.1l-32.8-42.2a19.42,19.42,0,0,0-7.4-5.6l-52.8-23.9a21.8,21.8,0,0,0-9.9-1.7Z"/><path id="e" class="cls-5" d="M1107.54,453.1c60.3,23.7,109.7,35.7,144.9,91.1-1.5,14.6-31.8,24.4-44,26.5-36.5-4.6-70.1-18.4-103.1-34.2-32.6-7.4-4.2,53.2-2.5,65.6,23.3,26.7,138.8,175.9,107.1,179.9-7.8,1-11.1,98.9-18.4,100.3s-95.4-66.1-103.3-68.9c-50.8-17.6-59.1-184.5-67.4-189.5-9.1-24.8-33.7-42.3-53.4-56.3l51.4-184.8,53,23.9,35.7,46.4Z"/><path class="cls-6" d="M1824.69,290.3l-.7-156.2c.2-15.4-11.5-27.9-26.1-28.1h-.6l-135.6-1.4c-14.6-.1-26.6,12.3-26.6,27.8a29,29,0,0,0,7.3,19.4l136.2,157.5a25.43,25.43,0,0,0,29.3,7.2c10.2-4.2,16.9-14.7,16.8-26.2Z"/><path class="cls-6" d="M1815.79,290.3l-.7-156.2c-.1-10-7.8-18.1-17.4-18.3l-135.6-1.4c-9.8,0-17.7,8.3-17.8,18.6a19.55,19.55,0,0,0,4.4,12.4L1784.89,303a17.11,17.11,0,0,0,25,1.2,19,19,0,0,0,5.9-13.9Z"/><path class="cls-6" d="M1810,290.3l-.7-156.2a12.79,12.79,0,0,0-3.4-9,11.41,11.41,0,0,0-8.6-3.6l-135.6-1.4c-6.6-.1-11.9,5.5-12,12.4a12.59,12.59,0,0,0,3.3,8.7l136.3,157.5a11.43,11.43,0,0,0,16.7,1.1A12.54,12.54,0,0,0,1810,290.3Z"/><path class="cls-7" d="M1803.49,290.4l-.7-156.2a5.23,5.23,0,0,0-.7-2.1,5.71,5.71,0,0,0-1.3-2.1,4.62,4.62,0,0,0-.7-.7,5,5,0,0,0-2.7-.7,4.62,4.62,0,0,0-.7-.7l-135.6-1.4a5.39,5.39,0,0,0-1.3.7,4.79,4.79,0,0,0-2,.7,5.71,5.71,0,0,0-1.3,1.4,8.64,8.64,0,0,0-.7,2.1,6.92,6.92,0,0,0,0,3.5,7.44,7.44,0,0,0,1.3,2.1l136.2,157.6a7.19,7.19,0,0,0,7.4.7c.3-.2.4-.5.7-.7a5.71,5.71,0,0,0,1.3-2.1,4.56,4.56,0,0,0,.8-2.1Z"/><path class="cls-8" d="M1669.79,135.2l126.7-.6-1.2,143.4-125.5-142.8Z"/><path class="cls-6" d="M1666.59,953.1l148.3-.7c14.6.2,26.5-12.1,26.7-27.5v-.6l1.3-142.8c.1-15.4-11.6-28-26.2-28.1a25.46,25.46,0,0,0-18.5,7.7l-149.6,143.5a29,29,0,0,0-1.9,39.4A25.94,25.94,0,0,0,1666.59,953.1Z"/><path class="cls-6" d="M1667.09,943.8l148.3-.7c9.5-.1,17.2-8.2,17.4-18.3l1.3-142.8c.1-10.3-7.8-18.7-17.6-18.7a16.8,16.8,0,0,0-11.8,4.7l-149.6,143.5a19.41,19.41,0,0,0-1.2,26.3,17.61,17.61,0,0,0,13.2,6Z"/><path class="cls-6" d="M1666.59,937.7l148.3-.7c6.6.1,12-5.5,12-12.4v-.2l1.3-142.8a12.17,12.17,0,0,0-11.5-12.7,11.41,11.41,0,0,0-8.6,3.6l-149.5,143.3c-6.5.1-11.8,5.8-11.7,12.6s5.5,12.4,12,12.3A11.43,11.43,0,0,0,1666.59,937.7Z"/><path class="cls-7" d="M1666,930.9l148.3-.7a4.79,4.79,0,0,0,2-.7,5.58,5.58,0,0,0,2-1.4,4.62,4.62,0,0,0,.7-.7,6.81,6.81,0,0,0,.7-2.8,4.62,4.62,0,0,0,.7-.7l1.3-142.8a6.11,6.11,0,0,0-.7-1.4,5.23,5.23,0,0,0-.7-2.1,8.64,8.64,0,0,0-1.3-1.4,4.79,4.79,0,0,0-2-.7,4.69,4.69,0,0,0-3.3,0,5.58,5.58,0,0,0-2,1.4l-149.6,143.5a6.26,6.26,0,0,0-1.3,4.9,5.3,5.3,0,0,0,.7,2.8,2.34,2.34,0,0,0,.7.7,5.58,5.58,0,0,0,2,1.4,3.6,3.6,0,0,0,1.8.7Z"/><path class="cls-9" d="M1813.49,762.9l.4,159.7h-145.5l145.1-159.7Z"/><path class="cls-6" d="M929.39,767.4l.7,156.2c-.1,15.4,11.6,28,26.2,28.1h.5l135.6,1.4a26.4,26.4,0,0,0,24.5-16.8,28.9,28.9,0,0,0-5.2-30.3L975.39,748.4a25.51,25.51,0,0,0-37.4-1.8,28.3,28.3,0,0,0-8.6,20.8Z"/><path class="cls-6" d="M938.69,767.9l.7,156.2c.1,10,7.8,18.1,17.4,18.3l135.6,1.4c9.7.2,17.7-8,17.9-18.3a18.83,18.83,0,0,0-4.5-12.7L969.39,755.2a17.07,17.07,0,0,0-19.5-4.8,18.61,18.61,0,0,0-11.2,17.5Z"/><path class="cls-6" d="M944.09,767.4l.7,156.2a12.45,12.45,0,0,0,3.5,9,11.27,11.27,0,0,0,8.6,3.6l135.6,1.4c6.5.2,11.9-5.3,12-12.1a12.36,12.36,0,0,0-3.4-9L964.79,759a11.43,11.43,0,0,0-16.7-1.1,12.54,12.54,0,0,0-4,9.5Z"/><path class="cls-7" d="M950,766.9l.7,156.2a5.22,5.22,0,0,0,.7,2.1,7.43,7.43,0,0,0,1.3,2.1,2.34,2.34,0,0,0,.7.7,5,5,0,0,0,2.7.7,2.34,2.34,0,0,0,.7.7l135.6,1.4a5.39,5.39,0,0,0,1.3-.7,4.79,4.79,0,0,0,2-.7,5.71,5.71,0,0,0,1.3-1.4,8.64,8.64,0,0,0,.7-2.1,6.92,6.92,0,0,0,0-3.5,7.43,7.43,0,0,0-1.3-2.1L959.89,762.7a7.19,7.19,0,0,0-7.4-.7,4.62,4.62,0,0,0-.7.7,5.71,5.71,0,0,0-1.3,2.1,8,8,0,0,0-.5,2.1Z"/><path class="cls-10" d="M1095.69,922.1h-137V764.9Z"/><path class="cls-6" d="M1132.39,106.2l-148.3.7c-14.6-.1-26.6,12.2-26.7,27.6v.5l-1.3,142.8c-.1,15.4,11.6,28,26.2,28.1a25.46,25.46,0,0,0,18.5-7.7l149.6-143.5a28.88,28.88,0,0,0,1.9-39.3A25.73,25.73,0,0,0,1132.39,106.2Z"/><path class="cls-6" d="M1132.39,116.1l-148.3.7c-9.5.1-17.2,8.2-17.4,18.3l-1.3,142.8c-.1,10.3,7.8,18.7,17.6,18.7a17.15,17.15,0,0,0,11.8-4.7l149.6-143.5a19.41,19.41,0,0,0,1.2-26.3,17.78,17.78,0,0,0-13.2-6Z"/><path class="cls-6" d="M1132.39,121.7l-148.3.7c-6.5-.1-11.9,5.4-12,12.2v.4l-1.3,142.8c-.1,6.9,5.1,12.5,11.6,12.6a11.81,11.81,0,0,0,8.4-3.5l149.6-143.5a13,13,0,0,0,1-17.6A11.92,11.92,0,0,0,1132.39,121.7Z"/><path class="cls-7" d="M1132.39,128.1l-148.3.7a4.79,4.79,0,0,0-2,.7,5.58,5.58,0,0,0-2,1.4,4.62,4.62,0,0,0-.7.7,6.81,6.81,0,0,0-.7,2.8,4.62,4.62,0,0,0-.7.7l-1.3,142.8a6.11,6.11,0,0,0,.7,1.4,5.22,5.22,0,0,0,.7,2.1,8.64,8.64,0,0,0,1.3,1.4,4.79,4.79,0,0,0,2,.7,4.69,4.69,0,0,0,3.3,0,5.58,5.58,0,0,0,2-1.4l149.6-143.5a6.16,6.16,0,0,0,1.3-4.9,5.55,5.55,0,0,0-.7-2.8,2.34,2.34,0,0,0-.7-.7,6.61,6.61,0,0,0-2-1.4,3.26,3.26,0,0,0-1.8-.7Z"/><path id="h" class="cls-11" d="M983.09,278l.8-142.5,148.4-.7L983.09,278Z"/><path class="cls-12" d="M1111.69,237.8a9,9,0,0,0-6.2,3.8,9.23,9.23,0,0,0-1.2,7.4l14.7,54.2,101.6,475.5-9.4,52a8.93,8.93,0,0,0,6.8,10.4,4.87,4.87,0,0,0,1.2.1h147.6a8.91,8.91,0,0,0,8.3-9.3,6.93,6.93,0,0,0-.3-2l-9.4-49.9,25.4-102,31.4,103.4-14,47.8a8.94,8.94,0,0,0,5.2,11.4,9.19,9.19,0,0,0,2.8.5l166.3.7a8.71,8.71,0,0,0,8.5-8.9,9.93,9.93,0,0,0-.5-3l-19.4-54.9,76.1-460.7,28.7-64a9.14,9.14,0,0,0-4.2-11.9,8.36,8.36,0,0,0-3.1-.8h-144.9a8.7,8.7,0,0,0-8.8,8.6,12.1,12.1,0,0,0,.1,1.9l8.7,52-50.1,297.5-78.1-317.9a8.34,8.34,0,0,0-10.9-5.4,9,9,0,0,0-5.2,5.4l-75.5,315.8-62.8-295.4,8-52a8.75,8.75,0,0,0-2.7-7.7,7.94,7.94,0,0,0-6-2.8h-128.2C1112.19,237.8,1111.89,237.8,1111.69,237.8Z"/><path class="cls-12" d="M1109,230.7c-8.3,2.1-13.5,10.8-11.5,19.6.1.3.1.5.2.8l14.7,53.5h-.7l101.5,474.1-9.4,50.6c-1.4,8.9,4.4,17.4,12.9,18.8a19.42,19.42,0,0,0,2.4.2h147.6c8.6,0,15.6-7.3,15.7-16.4a18.41,18.41,0,0,0-.3-3.3l-9.4-47.8,18.7-75.3,23.4,76-13.4,45.7a17.12,17.12,0,0,0,2.4,14.4,15.2,15.2,0,0,0,12.3,6.7l166.3.7c8.6,0,15.6-7.4,15.6-16.5a16,16,0,0,0-.9-5.3l-18.7-53.5,75.5-455.8,28.7-64c3.5-8.3,0-18-7.8-21.8a14.78,14.78,0,0,0-6.2-1.4h-144.9c-8.6,0-15.6,7.4-15.6,16.4a19.49,19.49,0,0,0,.2,2.5l8,50.6-43.4,261.7-70.1-284.2c-1.5-8.9-9.6-14.9-18.1-13.3a16.08,16.08,0,0,0-12.7,13.3l-68.1,284.2-55.3-263.6,7.4-48.5c1.4-8.9-4.4-17.3-12.9-18.8a21.05,21.05,0,0,0-2.5-.2h-128.2a12.79,12.79,0,0,0-3.4-.1Z"/><path class="cls-12" d="M1107.69,223.7c-12,2.7-19.7,15-17.1,27.7a13.32,13.32,0,0,0,.5,1.9l14.7,52.8v1.4l100.8,469.8-9.4,50.6a24.9,24.9,0,0,0,4.9,19.2,21.94,21.94,0,0,0,17.1,8.3h147.6c12.3.2,22.3-10.2,22.5-23.1a20.7,20.7,0,0,0-.5-5l-9.3-47.9,12.7-49.2,15.4,51.3-12.7,43.6c-3.6,12.4,3,25.4,14.8,29.2a21.14,21.14,0,0,0,6.6,1l166.3.7c12.3-.2,22.1-10.8,21.9-23.8a22.2,22.2,0,0,0-1.2-7.2l-18-51.3,75.5-454.4,28-62.6c5.1-11.8.1-25.6-11-31a20.16,20.16,0,0,0-9-2.1h-144.9c-12.2-.1-22.3,10.2-22.4,23.1a31.07,31.07,0,0,0,.3,4.3l8,49.2L1471,529.7l-62.1-253.2c-3.3-12.4-15.6-19.7-27.4-16.2a22.76,22.76,0,0,0-15.3,16.2l-61.5,257.4-49.4-234.2,7.4-49.2c1.8-12.7-6.6-24.6-18.7-26.5a12.72,12.72,0,0,0-3.4-.2h-128.2A14.83,14.83,0,0,0,1107.69,223.7Z"/><path class="cls-12" d="M1109,215.3c-16.6,1.8-28.7,17.4-27,34.9a47.13,47.13,0,0,0,.9,5.2l14.7,52.8v1.4l100.9,469.1-8.7,47.1c-3.2,17.2,7.4,34,23.8,37.4a26.66,26.66,0,0,0,5.6.6h147.6a29.93,29.93,0,0,0,24.7-13.4,29.93,29.93,0,0,0,24.7,13.4l166.3.7a29.65,29.65,0,0,0,24.6-13.8,32.93,32.93,0,0,0,3.4-29.1l-16.7-48.5,74.1-450.2,28-61.9a33.44,33.44,0,0,0-1.6-30.9,30.14,30.14,0,0,0-25.8-14.9h-144.9c-16.7-.2-30.3,14-30.5,31.5a36.42,36.42,0,0,0,.4,5.7l8,47.8-32.1,189.2-52.8-215.2c-3.8-17.1-20.1-27.7-36.3-23.6a31,31,0,0,0-22.4,23.6l-52.8,221.6L1263,298.9l7.4-47.1c2.5-17.4-8.8-33.6-25.3-36.2a37.25,37.25,0,0,0-4.7-.4h-128.2C1111.29,215.2,1110.19,215.2,1109,215.3Zm283.9,545.8,6.7,21.1-7.4,23.9-4.7-23.9Z"/><path id="m" class="cls-12" d="M1112.19,246.9l15.2,54,101.9,477.2-10,54.2h147.8l-10.2-52.2,33.6-134,40.4,135.7-14.4,50.5,166.5.4-20.5-57.2L1639,313.4l29.7-66.5-144.9.1,8.4,53.7-56.6,339.4-88.1-358-84.2,351.7L1232.59,299l8-52.1h-128.4Z"/><path class="cls-13" d="M1112.39,246.9l72.2,56.2,96.7,473.5-62.1,55.8,10.1-54.3-101.5-476.9Z"/><path class="cls-14" d="M1281.29,776.6l-62.2,55.8,148-.2L1310,777l-28.7-.4Z"/><path class="cls-15" d="M1240.29,247.4l-55.6,55.8,96.7,473.3,28.5.3-5.7-147.2-68.8-328.5,4.9-53.7Z"/><path class="cls-16" d="M1367.09,832.3l-56.9-55.3,79.9-323.3.3,192.2-33.6,134.2,10.3,52.2Z"/><path class="cls-17" d="M1387.49,281.4l2.7,170.9L1310,777.2l-5.3-146.2Z"/><path class="cls-18" d="M1112.19,246.9l72.5,56.3,55.9-56.1Z"/><path class="cls-19" d="M1387.29,281.7l2.7,171.8,73.5,323.7,45.9.2-122.1-495.7Z"/><path class="cls-20" d="M1390,453.7l.3,191.8,40.5,136.2-14.4,50.3,47.5-54.7L1390,453.7Z"/><path class="cls-14" d="M1509.19,777.2l-45.1.2-48,54.9,166.5.3-73.4-55.4Z"/><path class="cls-21" d="M1638.69,312.6l29.8-65.3-80.2,47.8-79.4,482.3,74,55.5-20.5-57.3,76.3-463Z"/><path class="cls-22" d="M1532.19,300.4l-8.6-52.9,64.9,47.3L1509,776.9l-33.4-136.8Z"/><path class="cls-23" d="M1523.39,247.3l64.6,48,80.8-48.3Z"/><path class="cls-24" d="M1390.19,20.4c-269.1,0-487.5,230.3-487.5,514.2s218.4,514.2,487.5,514.2,487.5-230.3,487.5-514.2S1659.29,20.4,1390.19,20.4Zm-2,88.7c220.7,0,399.4,188.6,399.4,422S1609,953.8,1388.19,953.8s-400-189.3-400-422.7,179.2-422,400-422Z"/><path class="cls-25" d="M1390.19,12.7c-273.1,0-494.9,233.9-494.9,521.9s221.7,521.9,494.9,521.9,494.9-233.9,494.9-521.9S1663.29,12.7,1390.19,12.7Zm-2,104.1c216.7,0,392,185.1,392,414.3s-175.3,415-392,415-392.7-185.8-392.7-415S1171.49,116.8,1388.19,116.8Z"/><path class="cls-26" d="M1390.19,0c-279.6,0-506.9,239.7-506.9,534.6s227.3,534.6,506.9,534.6,506.9-239.7,506.9-534.6S1669.79,0,1390.19,0Zm-2,129.5c210.2,0,380,179.2,380,401.6s-169.8,402.3-380,402.3-380.6-180-380.6-402.3S1178,129.5,1388.19,129.5Z"/><path id="x" class="cls-27" d="M1390.19,28.2C1125,28.2,910,254.9,910,534.6s215,506.4,480.2,506.4,480.2-226.7,480.2-506.4-215-506.4-480.2-506.4Zm-2,73.1c224.7,0,406.7,192.2,406.7,429.8s-182.1,430.5-406.7,430.5-407.4-193-407.4-430.5S1163.49,101.3,1388.19,101.3Z"/><path class="cls-28" d="M1378.09,31.5c-251.8,0-455.5,214.8-455.5,480.4s203.7,480.4,455.4,480.4,455.5-214.8,455.5-480.4S1629.89,31.5,1378.09,31.5Zm-2,21.1c238.1,0,431.4,204.2,431.4,455.8s-193.3,456.5-431.4,456.5S944,760,944,508.4s194-455.8,432.1-455.8Z"/><rect class="cls-29" y="0.05" width="1894.5" height="1069.1"/></g></g></svg>