<svg xmlns="http://www.w3.org/2000/svg" xmlns:xlink="http://www.w3.org/1999/xlink" viewBox="0 0 1905.78 1069.14"><defs><style>.cls-1{fill:url(#linear-gradient);}.cls-2{fill:url(#linear-gradient-2);}.cls-3{fill:url(#radial-gradient);}.cls-4{fill:url(#linear-gradient-3);}.cls-5{fill:url(#radial-gradient-2);}.cls-6{fill-opacity:0.32;}.cls-7{fill-opacity:0.33;}.cls-8{fill:url(#linear-gradient-4);}.cls-9{fill:url(#linear-gradient-5);}.cls-10{fill:url(#linear-gradient-6);}.cls-11{fill:url(#linear-gradient-7);}.cls-12{fill-opacity:0.29;}.cls-13{fill:url(#linear-gradient-8);}.cls-14{fill:#792100;}.cls-15{fill:url(#linear-gradient-9);}.cls-16{fill:url(#linear-gradient-10);}.cls-17{fill:url(#linear-gradient-11);}.cls-18{fill:url(#linear-gradient-12);}.cls-19{fill:url(#linear-gradient-13);}.cls-20{fill:url(#linear-gradient-14);}.cls-21{fill:url(#linear-gradient-15);}.cls-22{fill:url(#linear-gradient-16);}.cls-23{fill:url(#linear-gradient-17);}.cls-24{fill-opacity:0.26;}.cls-25{fill-opacity:0.28;}.cls-26{fill-opacity:0.41;}.cls-27{fill:url(#linear-gradient-18);}.cls-28{fill:url(#linear-gradient-19);}.cls-29{fill:url(#linear-gradient-20);}</style><linearGradient id="linear-gradient" x1="-2221.79" y1="1462.66" x2="-2212.87" y2="1479.92" gradientTransform="translate(117163.31 -76978.97) scale(52.63)" gradientUnits="userSpaceOnUse"><stop offset="0" stop-color="#5b779e"/><stop offset="0.4" stop-color="#2d3b50"/><stop offset="1" stop-color="#0c0e14"/></linearGradient><linearGradient id="linear-gradient-2" x1="-2248.46" y1="1414.16" x2="-2245.75" y2="1420.09" gradientTransform="translate(118739.9 -74230.76) scale(52.63)" gradientUnits="userSpaceOnUse"><stop offset="0" stop-opacity="0"/><stop offset="1" stop-opacity="0.62"/></linearGradient><radialGradient id="radial-gradient" cx="-2550.29" cy="1277.55" r="7.5" gradientTransform="matrix(78.49, -16.81, 8.3, 43, 189904.23, -97623.49)" gradientUnits="userSpaceOnUse"><stop offset="0" stop-color="#e6f1fd"/><stop offset="0" stop-color="#bdd9f9"/><stop offset="0.07" stop-color="#bdd9f9"/><stop offset="1" stop-color="#1c3556" stop-opacity="0.1"/></radialGradient><linearGradient id="linear-gradient-3" x1="-2255.41" y1="1413.62" x2="-2250.73" y2="1423.71" xlink:href="#linear-gradient-2"/><radialGradient id="radial-gradient-2" cx="-2549.13" cy="1272.93" r="7.5" gradientTransform="matrix(78.49, -16.81, 8.3, 43, 189751.6, -97275.68)" xlink:href="#radial-gradient"/><linearGradient id="linear-gradient-4" x1="-2181.66" y1="1412.68" x2="-2179.09" y2="1414.96" gradientTransform="translate(115608.32 -74230.76) scale(52.63)" gradientUnits="userSpaceOnUse"><stop offset="0" stop-color="#fdec97"/><stop offset="0.35" stop-color="#fdec97"/><stop offset="0.51" stop-color="#fdec97"/><stop offset="0.63" stop-color="#db990f"/><stop offset="1" stop-color="#db990f"/></linearGradient><linearGradient id="linear-gradient-5" x1="-2181.33" y1="1428.47" x2="-2178.62" y2="1425.71" gradientTransform="translate(115608.32 -74230.76) scale(52.63)" gradientUnits="userSpaceOnUse"><stop offset="0" stop-color="#ffdc76"/><stop offset="0.33" stop-color="#e4903b"/><stop offset="0.45" stop-color="#ca4400"/><stop offset="0.58" stop-color="#fdec97"/><stop offset="0.7" stop-color="#db990f"/><stop offset="1" stop-color="#db990f"/></linearGradient><linearGradient id="linear-gradient-6" x1="-2193.42" y1="1427.99" x2="-2195.23" y2="1425.99" xlink:href="#linear-gradient-5"/><linearGradient id="linear-gradient-7" x1="-2195.16" y1="1414.96" x2="-2192.71" y2="1412.54" gradientTransform="translate(115608.32 -74230.76) scale(52.63)" gradientUnits="userSpaceOnUse"><stop offset="0" stop-color="#ca4400"/><stop offset="0.35" stop-color="#ca4400"/><stop offset="0.51" stop-color="#fdec97"/><stop offset="0.63" stop-color="#db990f"/><stop offset="1" stop-color="#db990f"/></linearGradient><linearGradient id="linear-gradient-8" x1="-2191.82" y1="1415.18" x2="-2189.55" y2="1425.33" gradientTransform="translate(115608.32 -74230.76) scale(52.63)" gradientUnits="userSpaceOnUse"><stop offset="0" stop-color="#da940f"/><stop offset="0.23" stop-color="#efd11a"/><stop offset="0.75" stop-color="#efd11a"/><stop offset="0.91" stop-color="#efd11a"/><stop offset="1" stop-color="#d3900e"/></linearGradient><linearGradient id="linear-gradient-9" x1="-2190.43" y1="1415.13" x2="-2188.42" y2="1424.7" gradientTransform="translate(115608.32 -74230.76) scale(52.63)" gradientUnits="userSpaceOnUse"><stop offset="0" stop-color="#c63000"/><stop offset="0.49" stop-color="#db9000"/><stop offset="0.8" stop-color="#db9000"/><stop offset="1" stop-color="#c43b00"/></linearGradient><linearGradient id="linear-gradient-10" x1="-2186.55" y1="1419.68" x2="-2188.03" y2="1425.83" gradientTransform="translate(115608.32 -74230.76) scale(52.63)" gradientUnits="userSpaceOnUse"><stop offset="0" stop-color="#ad2f00"/><stop offset="1" stop-color="#cb7500"/></linearGradient><linearGradient id="linear-gradient-11" x1="-2186.59" y1="1416.75" x2="-2188.69" y2="1423.22" gradientTransform="translate(115608.32 -74230.76) scale(52.63)" gradientUnits="userSpaceOnUse"><stop offset="0" stop-color="#ecd500"/><stop offset="0.87" stop-color="#ecd500"/><stop offset="1" stop-color="#ffef57"/></linearGradient><linearGradient id="linear-gradient-12" x1="-2190.99" y1="1415.06" x2="-2190.48" y2="1416.15" gradientTransform="translate(115608.32 -74230.76) scale(52.63)" gradientUnits="userSpaceOnUse"><stop offset="0" stop-color="#ffd511"/><stop offset="1" stop-color="#fdf8dc"/></linearGradient><linearGradient id="linear-gradient-13" x1="-2187.44" y1="1416.55" x2="-2185" y2="1424.96" gradientTransform="translate(115608.32 -74230.76) scale(52.63)" gradientUnits="userSpaceOnUse"><stop offset="0" stop-color="#bd3300"/><stop offset="0.19" stop-color="#bd3300"/><stop offset="0.41" stop-color="#cb8500"/><stop offset="1" stop-color="#c26f00"/></linearGradient><linearGradient id="linear-gradient-14" x1="-2187.52" y1="1419.82" x2="-2185.89" y2="1425.42" gradientTransform="translate(115608.32 -74230.76) scale(52.63)" gradientUnits="userSpaceOnUse"><stop offset="0" stop-color="#ffd303"/><stop offset="0.9" stop-color="#ffd303"/><stop offset="1" stop-color="#d27e00"/></linearGradient><linearGradient id="linear-gradient-15" x1="-2182.34" y1="1414.92" x2="-2184.17" y2="1425.95" gradientTransform="translate(115608.32 -74230.76) scale(52.63)" gradientUnits="userSpaceOnUse"><stop offset="0" stop-color="#a51f00"/><stop offset="0.29" stop-color="#c67200"/><stop offset="0.64" stop-color="#c67200"/><stop offset="1" stop-color="#c25500"/></linearGradient><linearGradient id="linear-gradient-16" x1="-2183.72" y1="1415.14" x2="-2185.56" y2="1424.9" gradientTransform="translate(115608.32 -74230.76) scale(52.63)" gradientUnits="userSpaceOnUse"><stop offset="0" stop-color="#cd7c00"/><stop offset="0.31" stop-color="#eed700"/><stop offset="1" stop-color="#eed700"/></linearGradient><linearGradient id="linear-gradient-17" x1="-2183.17" y1="1415.06" x2="-2182.7" y2="1416" xlink:href="#linear-gradient-12"/><linearGradient id="linear-gradient-18" x1="-2197.19" y1="1424.73" x2="-2176.5" y2="1416.12" gradientTransform="translate(115608.32 -74230.76) scale(52.63)" gradientUnits="userSpaceOnUse"><stop offset="0" stop-color="#51290e"/><stop offset="0.35" stop-color="#d08e29"/><stop offset="0.42" stop-color="#e1d02d"/><stop offset="0.5" stop-color="#f6e57f"/><stop offset="0.54" stop-color="#f6e57f"/><stop offset="0.6" stop-color="#e1d02d"/><stop offset="0.69" stop-color="#d08e29"/><stop offset="1" stop-color="#452a15"/></linearGradient><linearGradient id="linear-gradient-19" x1="-2181.46" y1="1428.74" x2="-2192.49" y2="1413.1" gradientTransform="translate(115578.47 -74283.92) scale(52.63)" gradientUnits="userSpaceOnUse"><stop offset="0" stop-color="#ffe12b"/><stop offset="0.14" stop-color="#fff7c7" stop-opacity="0"/><stop offset="0.82" stop-color="#fff7c7" stop-opacity="0"/><stop offset="1" stop-color="#ffe12b"/></linearGradient><linearGradient id="linear-gradient-20" x1="11.3" y1="534.57" x2="1905.78" y2="534.57" gradientUnits="userSpaceOnUse"><stop offset="0.08" stop-color="#feffec" stop-opacity="0.1"/><stop offset="0.16" stop-color="#fffc24" stop-opacity="0.2"/><stop offset="0.24" stop-color="#fff111" stop-opacity="0.22"/><stop offset="0.31" stop-color="#ffef0d" stop-opacity="0.24"/><stop offset="0.36" stop-color="#ffe700" stop-opacity="0.3"/><stop offset="0.55" stop-color="#ffbe00" stop-opacity="0.6"/><stop offset="0.78" stop-color="#ff9808" stop-opacity="0.8"/><stop offset="0.98" stop-color="#3f2300" stop-opacity="0.98"/></linearGradient></defs><title>bg1</title><g id="Layer_2" data-name="Layer 2"><g id="Layer_1-2" data-name="Layer 1"><path class="cls-1" d="M920.72,534.93c.06,250.5-187.4,453.65-418.73,453.71S83,785.69,83,535.19v-.29C82.92,284.38,270.38,81.23,501.72,81.17s418.92,202.92,419,453.45Z"/><path class="cls-2" d="M542.84,87.44l-167.69,11a21.35,21.35,0,0,0-10.48,3.44L217.94,201.28c-10.42,6.77-13.66,21.17-7.23,32.14a22.87,22.87,0,0,0,6.58,7.18c19.35,13.73,38.51,29.54,43.89,44.16,11.59,32.37,24.76,79.79,36,120.75q7.41,27.4,15.72,54.51c2.37,7.55,4.32,14.31,6.54,20s3.63,10,9.18,16.56a26.89,26.89,0,0,0,2.62,2.08c9.91,8.5,20.25,13.16,32.74,17.24a297.36,297.36,0,0,0,40.62,9.67A255.56,255.56,0,0,0,443.3,529c11.8.22,20.12,2.94,34.06-6.2.67-.42,1.34-.88,2-1.37,6-5,6.58-8.37,7.86-11a64.21,64.21,0,0,0,3.27-7.6c1.82-5.39,3.48-11.44,5.24-18.63a762.08,762.08,0,0,0,17.69-105.56c1.51-15.63,3.31-26,0-40-.17-.73.21-1.32,0-2.08h-.69c-3.35-17.07-11.95-41.77-26.85-69.68a213.8,213.8,0,0,0-52.4-64.16c.75-.84,2.45-2.34,6.54-4.15l81.9.66a21.34,21.34,0,0,0,7.21-1.37c1.93-.66,4,.75,13.75-4.15a33.89,33.89,0,0,0,13.75-13.8A44.29,44.29,0,0,0,561.19,164l5.24-50.36c1.5-12.83-7.16-24.51-19.34-26.09a21.1,21.1,0,0,0-4.24-.12Z"/><path id="b" class="cls-3" d="M544.14,110.89l-5.24,50.29c-1.47,14.31-7.19,10.82-17.25,14.26l-86.28-.33c-25.45,8.61-28.24,22.87-26.52,35.06,48.34,28.3,78.52,108.65,82.9,132.52,6.2,23-17.71,152.94-26.2,160.07C451.24,512.14,366.41,499,345,480.68c-11.49-13.58-38.51-136.16-62.89-204.23-9-24.35-33-41.46-52.4-55.2L376.47,121.9Z"/><path class="cls-4" d="M125.56,366.86a19.81,19.81,0,0,0-17,15.19L58.1,563.52A21,21,0,0,0,66,586.28C85.31,600,105.33,616,111.16,631.81a19.79,19.79,0,0,0,2,3.44,14.41,14.41,0,0,1,.65,2.08c.9,4.11,1.95,11.24,3.27,19.32,2.66,16.16,6.33,38.09,11.13,60.72s10.71,46,19.66,66.24,20.92,38.95,41.92,46.23c-5.09-1.77-.86.22,2,2.08s6.54,4.39,11.13,7.6c9.18,6.4,20.92,14.44,32.74,22.76s23.71,17.16,33.41,23.45c4.84,3.16,9.24,5.48,13.1,7.6a49.61,49.61,0,0,0,5.89,2.76c2.22.88,3.52,3.07,12.45,1.37,10.27-1.94,13.44-8,15.07-11a31.86,31.86,0,0,0,2.62-7.6,109.64,109.64,0,0,0,3.27-13.8c1.53-10,2.64-22.43,3.94-34.49s2.62-24.26,3.94-32.43a62.6,62.6,0,0,1,1.3-6.2c1.45-1.3,3.5-1.13,4.59-2.76,4.28-6.34,4.76-12.92,4.59-17.93-.36-10-3.4-17.73-7.21-26.23-7.63-17-20.12-36.61-34.06-57.27-26.89-39.9-57.64-79.17-71.4-95.2-1.15-4-1.8-8.06-3.27-12.41-1.82-5.43-3.88-11.35-5.24-16.56,29,13,59,24.77,92.36,29a18.28,18.28,0,0,0,5.89-.68A117.63,117.63,0,0,0,347,582.13c5.66-2.69,11.65-5.45,17-10.35s11.34-12.76,12.45-23.45a21.38,21.38,0,0,0-3.27-13.8c-37.25-58.64-90.79-73.63-146.73-95.2l-32.13-41.42a19.53,19.53,0,0,0-7.21-5.52l-51.75-23.45a18.3,18.3,0,0,0-9.81-2.08Z"/><path id="e" class="cls-5" d="M214.52,456.68c59.11,23.23,107.6,35.06,142.1,89.37-1.47,14.28-31.15,23.91-43.2,26-35.8-4.53-68.75-18.06-101.1-33.52-32-7.26-4.15,52.17-2.43,64.36,22.85,26.19,136.17,172.52,105.06,176.5-7.63,1-10.92,97-18,98.36s-93.53-64.87-101.29-67.54c-49.83-17.29-58-181-66.13-185.92-9-24.35-33-41.46-52.4-55.2l50.39-181.31,52,23.43,35,45.48Z"/><path class="cls-6" d="M918,296.92l-.65-153.18c.17-15.06-11.27-27.41-25.57-27.6h-.63l-133-1.37c-14.36-.08-26.06,12.1-26.14,27.22a28.18,28.18,0,0,0,7.15,19L872.76,315.55a25.11,25.11,0,0,0,28.72,7.11c10-4.15,16.58-14.39,16.48-25.74Z"/><path class="cls-6" d="M909.21,296.94l-.65-153.18c-.12-9.85-7.67-17.8-17-17.93l-133-1.37c-9.59,0-17.39,8.11-17.43,18.21a18.86,18.86,0,0,0,4.33,12.15L879.09,309.37a16.73,16.73,0,0,0,24.49,1.14,18.72,18.72,0,0,0,5.63-13.57Z"/><path class="cls-6" d="M903.55,296.92l-.65-153.18a12.65,12.65,0,0,0-3.37-8.85,11.44,11.44,0,0,0-8.41-3.58l-133-1.37c-6.42-.05-11.67,5.39-11.73,12.16a12.62,12.62,0,0,0,3.19,8.53L883.24,305.18a11.21,11.21,0,0,0,16.39,1.06A12.53,12.53,0,0,0,903.55,296.92Z"/><path class="cls-7" d="M897.14,297l-.65-153.18a9.05,9.05,0,0,0-1.95-4.15,6.51,6.51,0,0,0-.65-.68,5.13,5.13,0,0,0-2.62-.68,6.51,6.51,0,0,0-.65-.68l-133-1.37a5.28,5.28,0,0,0-1.3.68,5.4,5.4,0,0,0-2,.68,6,6,0,0,0-1.3,1.37,6.44,6.44,0,0,0-.65,2.08,6,6,0,0,0,0,3.44,6.22,6.22,0,0,0,1.3,2.08L887.35,301.16a5.46,5.46,0,0,0,4.59,1.37,5.35,5.35,0,0,0,2.62-.68,6.51,6.51,0,0,0,.65-.68,5.71,5.71,0,0,0,1.3-2.08,6.46,6.46,0,0,0,.63-2.05Z"/><path class="cls-8" d="M766,144.8l124.26-.57-1.19,140.62L766,144.8Z"/><path class="cls-6" d="M774.7,940.62l145.43-.68c14.31.17,26-11.91,26.2-27q0-.31,0-.62l1.3-140.07c.14-15.1-11.37-27.45-25.7-27.59a25.26,25.26,0,0,0-18.19,7.59L757,893a28.36,28.36,0,0,0-1.83,38.61A25.37,25.37,0,0,0,774.7,940.62Z"/><path class="cls-6" d="M775.14,931.44l145.43-.68c9.34-.14,16.89-8.09,17-17.93l1.3-140.07c.07-10.08-7.64-18.31-17.22-18.38A16.84,16.84,0,0,0,910.07,759L763.34,899.71a18.93,18.93,0,0,0-1.16,25.76,16.92,16.92,0,0,0,13,6Z"/><path class="cls-6" d="M774.7,925.46l145.43-.68c6.45.06,11.72-5.39,11.78-12.19q0-.11,0-.22l1.3-140.07c.16-6.72-4.88-12.3-11.25-12.47a11.24,11.24,0,0,0-8.39,3.48L766.84,904.06c-6.41.1-11.54,5.65-11.44,12.41s5.37,12.15,11.78,12.05A11.29,11.29,0,0,0,774.7,925.46Z"/><path class="cls-7" d="M774.11,918.81l145.43-.68a5.4,5.4,0,0,0,2-.68,5.65,5.65,0,0,0,2-1.37,6.51,6.51,0,0,0,.65-.68,5.92,5.92,0,0,0,.65-2.76,6.51,6.51,0,0,0,.65-.68l1.3-140.07a6.77,6.77,0,0,0-.65-1.37,6.62,6.62,0,0,0-.65-2.08,6,6,0,0,0-1.3-1.37,5.69,5.69,0,0,0-2-.68,5.19,5.19,0,0,0-3.27,0,5.65,5.65,0,0,0-2,1.37L770.2,908.5a8,8,0,0,0-.65,7.6,6.51,6.51,0,0,0,.65.68,8,8,0,0,0,3.92,2Z"/><path class="cls-9" d="M918.73,754l.44,156.62H776.48L918.73,754Z"/><path class="cls-6" d="M51.52,758.48l.65,153.18c-.14,15.1,11.37,27.45,25.7,27.6h.51l133,1.37c10.44.11,19.89-6.38,24-16.47a28.48,28.48,0,0,0-5.05-29.76L96.71,739.84A25.08,25.08,0,0,0,60,738.07a28.07,28.07,0,0,0-8.47,20.41Z"/><path class="cls-6" d="M60.68,758.94l.65,153.18c.14,9.85,7.69,17.8,17,17.93l133,1.37c9.54.15,17.39-7.87,17.53-17.92a18.76,18.76,0,0,0-4.43-12.44L90.82,746.51a16.76,16.76,0,0,0-19.14-4.75,18.3,18.3,0,0,0-11,17.18Z"/><path class="cls-6" d="M65.94,758.48l.65,153.18a12.46,12.46,0,0,0,3.4,8.83,11.17,11.17,0,0,0,8.41,3.58l133,1.37c6.38.16,11.67-5.16,11.82-11.88a12.52,12.52,0,0,0-3.31-8.81L86.25,750.2a11.21,11.21,0,0,0-16.39-1.06,12.53,12.53,0,0,0-3.92,9.34Z"/><path class="cls-7" d="M71.73,758l.65,153.18a6.11,6.11,0,0,0,.65,2.08,6.22,6.22,0,0,0,1.3,2.08A4.89,4.89,0,0,0,75,916a5.17,5.17,0,0,0,2.62.68,4.89,4.89,0,0,0,.65.68l133,1.37a5.69,5.69,0,0,0,1.3-.68,5.85,5.85,0,0,0,2-.68,6,6,0,0,0,1.3-1.37,6.44,6.44,0,0,0,.65-2.08,6,6,0,0,0,0-3.44,6.44,6.44,0,0,0-1.3-2.08L81.52,753.84a5.36,5.36,0,0,0-4.59-1.37,5.41,5.41,0,0,0-2.62.68,4.89,4.89,0,0,0-.65.68A8.79,8.79,0,0,0,71.73,758Z"/><path class="cls-10" d="M214.67,910.16H80.34V756Z"/><path class="cls-6" d="M250.71,109.92l-145.43.68c-14.33-.15-26.06,12-26.2,27.07q0,.27,0,.53l-1.3,140.07c-.14,15.1,11.37,27.45,25.7,27.59a25.26,25.26,0,0,0,18.19-7.59L268.4,157.52A28.34,28.34,0,0,0,270.31,119,25.35,25.35,0,0,0,250.71,109.92Z"/><path class="cls-6" d="M250.71,119.59l-145.43.68c-9.34.14-16.89,8.09-17,17.93L87,278.27c-.06,10.08,7.66,18.31,17.24,18.36a16.84,16.84,0,0,0,11.57-4.56L262.49,151.32a18.93,18.93,0,0,0,1.16-25.76,16.93,16.93,0,0,0-12.94-6Z"/><path class="cls-6" d="M250.71,125.11l-145.43.68c-6.4-.11-11.68,5.27-11.78,12q0,.2,0,.4L92.2,278.27c-.09,6.74,5,12.29,11.42,12.39a11.28,11.28,0,0,0,8.22-3.42L258.57,146.48a12.69,12.69,0,0,0,1-17.27A11.36,11.36,0,0,0,250.71,125.11Z"/><path class="cls-7" d="M250.71,131.31,105.28,132a5.26,5.26,0,0,0-2,.68,5.61,5.61,0,0,0-2,1.39,4.89,4.89,0,0,0-.65.68,6.33,6.33,0,0,0-.65,2.76,4.89,4.89,0,0,0-.65.68l-1.3,140.07a5.41,5.41,0,0,0,.65,1.37,6,6,0,0,0,.65,2.08,6,6,0,0,0,1.3,1.37,5.26,5.26,0,0,0,2,.68,5.19,5.19,0,0,0,3.27,0,5.65,5.65,0,0,0,2-1.37L254.63,141.65a6,6,0,0,0,1.3-4.84,6.33,6.33,0,0,0-.65-2.76,4.89,4.89,0,0,0-.65-.68,5.46,5.46,0,0,0-2-1.37,5.3,5.3,0,0,0-1.95-.68Z"/><path id="h" class="cls-11" d="M104.23,278.36,105,138.53l145.6-.68L104.23,278.36Z"/><path class="cls-12" d="M218.59,245.43a8.35,8.35,0,0,0-6,3.75,9.09,9.09,0,0,0-1.17,7.29l14.42,53.12L325.37,776l-9.18,51a8.74,8.74,0,0,0,6.69,10.2,7.91,7.91,0,0,0,1.17.14H468.81a8.65,8.65,0,0,0,8.12-9.1,9.27,9.27,0,0,0-.26-1.94l-9.18-49,24.9-100,30.79,101.45-13.75,46.92a8.92,8.92,0,0,0,5.08,11.22,8,8,0,0,0,2.79.51l163.1.71a8.55,8.55,0,0,0,8.35-8.74,9.19,9.19,0,0,0-.49-3l-19-53.83,74.67-451.93,28.17-62.79A9,9,0,0,0,768,246.2a8,8,0,0,0-3.07-.79H622.75a8.53,8.53,0,0,0-8.64,8.46,9.25,9.25,0,0,0,.13,1.89l8.51,51L573.62,598.67,497,286.83a8.24,8.24,0,0,0-10.66-5.34,8.58,8.58,0,0,0-5.07,5.34l-74,309.78L345.66,306.83l7.86-51a9.06,9.06,0,0,0-2.62-7.6,8.08,8.08,0,0,0-5.89-2.76H219.24A3.19,3.19,0,0,0,218.59,245.43Z"/><path class="cls-12" d="M216,238.52c-8.17,2-13.24,10.64-11.32,19.24q.09.38.19.76L219.24,311h-.65l99.57,465L309,825.66c-1.33,8.78,4.35,17,12.68,18.43a14.52,14.52,0,0,0,2.39.2H468.81c8.45,0,15.34-7.14,15.38-16a17,17,0,0,0-.3-3.28l-9.18-46.92L493,704.22,516,778.74l-13.1,44.84a16.92,16.92,0,0,0,2.33,14.13,15,15,0,0,0,12.07,6.58L680.4,845c8.45,0,15.29-7.25,15.27-16.16a16.9,16.9,0,0,0-.84-5.24l-18.34-52.44,74-447.09,28.17-62.79c3.47-8.13,0-17.68-7.68-21.34a14.68,14.68,0,0,0-6.07-1.42H622.75c-8.44,0-15.27,7.23-15.26,16.12a16.93,16.93,0,0,0,.19,2.49l7.86,49.68L573,563.5,504.19,284.75c-1.46-8.77-9.39-14.63-17.72-13.09A15.73,15.73,0,0,0,474,284.75L407.24,563.5,352.87,304.76l7.21-47.6c1.34-8.75-4.3-17-12.61-18.41a14.48,14.48,0,0,0-2.46-.21H219.24a14.73,14.73,0,0,0-3.27,0Z"/><path class="cls-12" d="M214.65,231.63c-11.76,2.6-19.29,14.76-16.82,27.14q.19.93.45,1.85l14.42,51.75v1.37l98.92,460.89-9.18,49.68a24,24,0,0,0,4.82,18.81,21.44,21.44,0,0,0,16.79,8.1H468.81c12,.15,21.92-10,22.06-22.69a24.15,24.15,0,0,0-.45-4.91l-9.16-46.94,12.45-48.31,15.07,50.36-12.45,42.79c-3.52,12.13,3,25,14.48,28.67a20.78,20.78,0,0,0,6.49,1l163.1.68c12-.19,21.65-10.62,21.47-23.3a24.07,24.07,0,0,0-1.16-7.06L683,771.17l74-445.72,27.5-61.4c5-11.53.14-25.13-10.81-30.38a20.86,20.86,0,0,0-8.83-2.06H622.75c-12-.12-21.83,10-21.95,22.67a24.08,24.08,0,0,0,.34,4.24L609,306.83,571,531.77,510.1,283.39c-3.26-12.19-15.3-19.29-26.87-15.85a22.39,22.39,0,0,0-15.05,15.85L407.89,535.9,359.43,306.15l7.21-48.31c1.75-12.5-6.45-24.12-18.32-26a20.64,20.64,0,0,0-3.31-.24H219.24A20,20,0,0,0,214.65,231.63Z"/><path class="cls-12" d="M216,223.35c-16.28,1.76-28.13,17.1-26.46,34.25a32.71,32.71,0,0,0,.9,5.08l14.42,51.75v1.37L303.75,776l-8.51,46.23c-3.17,16.9,7.26,33.31,23.31,36.66a28.17,28.17,0,0,0,5.51.59H468.83a29.21,29.21,0,0,0,24.23-13.11,29.21,29.21,0,0,0,24.23,13.11l163.1.71a29.14,29.14,0,0,0,24.13-13.51,32.74,32.74,0,0,0,3.37-28.57l-16.37-47.6,72.72-441.57,27.5-60.72a32.74,32.74,0,0,0-1.59-30.29,29.39,29.39,0,0,0-25.26-14.57H622.75C606.38,223.2,593,237,592.84,254.29a32.85,32.85,0,0,0,.44,5.63l7.86,46.92L569.7,492.43,517.94,281.31c-3.77-16.77-19.73-27.14-35.65-23.17a30.45,30.45,0,0,0-22,23.17L408.54,498.65,367.27,305.46l7.21-46.23c2.45-17-8.67-32.94-24.84-35.53a28.15,28.15,0,0,0-4.63-.35H219.24A26.93,26.93,0,0,0,216,223.35Zm278.39,535.4,6.54,20.71-7.21,23.45-4.59-23.45Z"/><path id="m" class="cls-12" d="M219.07,254.4,234,307.34l99.9,468.13L324,828.61H469l-10-51.22L491.89,646l39.64,133.16-14.09,49.5,163.27.35-20.06-56.15,75-453.32,29.18-65.2-142.12.09L631,307.08l-55.46,333L489.14,288.91l-82.55,345L337.17,305.46,345,254.4H219.07Z"/><path class="cls-13" d="M231,247.91,301.88,303l94.81,464.42-60.91,54.69,9.91-53.3L246.12,301Z"/><path class="cls-14" d="M396.77,767.44l-61,54.69L481,822l-56-54.16-28.17-.35Z"/><path class="cls-15" d="M356.48,248.42l-54.54,54.75,94.81,464.24,27.92.26-5.62-144.44L351.58,301l4.91-52.61Z"/><path class="cls-16" d="M480.87,822.13,425,767.88l78.36-317.11.34,188.53L470.81,770.91l10.06,51.22Z"/><path class="cls-17" d="M500.93,281.71l2.62,167.66L424.86,768.06,419.7,624.61Z"/><path class="cls-18" d="M230.88,247.91,302,303.11l54.86-55Z"/><path class="cls-19" d="M500.76,282.07l2.62,168.53L575.51,768.1l45,.24L500.76,282.07Z"/><path class="cls-20" d="M503.38,450.77l.34,188.18,39.74,133.6-14.09,49.37,46.56-53.61L503.38,450.77Z"/><path class="cls-14" d="M620.31,768.06l-44.21.18-47,53.89,163.36.31-72.11-54.38Z"/><path class="cls-21" d="M747.36,312.29l29.2-64-78.65,46.85L620,768.19l72.59,54.4-20.1-56.21,74.88-454.09Z"/><path class="cls-22" d="M642.8,300.35l-8.47-51.93L698,294.83,620,767.71,587.27,633.51Z"/><path class="cls-23" d="M634.25,248.26l63.35,47.07L776.89,248Z"/><path class="cls-24" d="M494.47,30C231.94,30,18.91,256.42,18.91,535.46s213,505.44,475.56,505.44S970,814.48,970,535.44,757,30,494.47,30Zm-2,87.11c215.33,0,389.59,185.4,389.59,414.87S707.83,947.55,492.51,947.55,102.27,761.46,102.27,532s174.9-414.87,390.23-414.87Z"/><path class="cls-25" d="M494.47,22.39C228,22.39,11.74,252.28,11.74,535.46S228,1048.53,494.47,1048.53,977.19,818.62,977.19,535.46,760.91,22.39,494.47,22.39Zm-2,102.34c211.41,0,382.41,181.93,382.41,407.26s-171,408-382.41,408S109.45,757.32,109.45,532,281.1,124.72,492.51,124.72Z"/><path class="cls-26" d="M494.47,9.93C221.69,9.93,0,245.56,0,535.44s221.69,525.51,494.47,525.51S988.93,825.32,988.93,535.44,767.27,9.93,494.47,9.93Zm-2,127.23c205.07,0,370.68,176.17,370.68,394.83S697.51,927.5,492.51,927.5,121.18,750.58,121.18,532,287.44,137.16,492.51,137.16Z"/><path id="x" class="cls-27" d="M494.47,37.59c-258.71,0-468.41,222.88-468.41,497.85s209.7,497.85,468.41,497.85S962.87,810.43,962.87,535.44,753.17,37.59,494.47,37.59Zm-2,71.91c219.16,0,396.74,189,396.74,422.49S711.65,955.16,492.51,955.16,95.12,765.49,95.12,532,273.36,109.5,492.51,109.5Z"/><path class="cls-28" d="M482.65,40.84C237,40.84,38.36,252,38.36,513.11S237,985.38,482.65,985.38,927,774.23,927,513.11,728.26,40.84,482.65,40.84Zm-2,20.73c232.25,0,420.86,200.73,420.86,448.06S713,958.39,480.69,958.39,59.2,757,59.2,509.64,248.43,61.58,480.69,61.58Z"/><rect class="cls-29" x="11.3" width="1894.47" height="1069.14"/></g></g></svg>