<svg xmlns="http://www.w3.org/2000/svg" viewBox="0 0 253.8 210.7"><defs><style>.cls-1{fill:#27b700;}.cls-1,.cls-2,.cls-5{stroke:#000;stroke-miterlimit:10;}.cls-2,.cls-3{fill:none;}.cls-4{fill:#fff;}</style></defs><title>Orc</title><g id="Layer_2" data-name="Layer 2"><g id="Layer_1-2" data-name="Layer 1"><path class="cls-1" d="M190.9,126.61c0,1.43-.1,2.9-.2,4.33H63.1a41.1,41.1,0,0,1-.2-4.33c0-21,12.72-39.23,31.67-49.1a68,68,0,0,1,11.61-4.74h0a70.07,70.07,0,0,1,20.45-3h.6a70.64,70.64,0,0,1,20.35,3h0a67.56,67.56,0,0,1,11.71,4.78C178.23,87.43,190.9,105.71,190.9,126.61Z"/><path class="cls-1" d="M164.86,44.5c0,11.84-6.87,22.26-17.26,28.28a42,42,0,0,1-41.4,0c-10.39-6-17.26-16.43-17.26-28.28a30.42,30.42,0,0,1,3-13.18,34.66,34.66,0,0,1,11.62-13.43,41.76,41.76,0,0,1,46.88.15,34.46,34.46,0,0,1,11.61,13.73A30.36,30.36,0,0,1,164.86,44.5Z"/><line class="cls-2" x1="253.8" y1="210.2" y2="210.2"/><line class="cls-2" x1="164.15" y1="50.98" x2="164.15" y2="50.98"/><path class="cls-1" d="M159.68,27.49h0q-1.59-5.2-3.77-10.42a107,107,0,0,0-7.14-14.12A68.89,68.89,0,0,1,150.42,18q0,2.27-.14,4.54l.07.08,4.08,4.83"/><path class="cls-1" d="M99,27.67l4.47-5.15v0c-.09-1.47-.14-2.95-.14-4.43A68.44,68.44,0,0,1,105,2.95a109.88,109.88,0,0,0-7.14,14.12A112.35,112.35,0,0,0,94,27.7h0"/><path class="cls-2" d="M89.75,51.43h0"/><line class="cls-3" x1="130.92" y1="62.27" x2="145.7" y2="62.27"/><line class="cls-3" x1="97.69" y1="62.27" x2="112.47" y2="62.27"/><polygon class="cls-4" points="135.17 62.52 138.31 55.96 141.45 62.52 135.17 62.52"/><polygon class="cls-4" points="112.47 62.52 115.61 55.96 118.75 62.52 112.47 62.52"/><path class="cls-5" d="M101.26,20.57h0l-2.73,3.94h0A38.1,38.1,0,0,1,99.94,19a36,36,0,0,1,1.68-4.15A25.34,25.34,0,0,0,101.26,20.57Z"/><path class="cls-5" d="M152.64,21.05h0L155.37,25h0A38.1,38.1,0,0,0,154,19.46a36,36,0,0,0-1.68-4.15A25.34,25.34,0,0,1,152.64,21.05Z"/><line class="cls-2" x1="93.98" y1="27.7" x2="99" y2="27.67"/><line class="cls-2" x1="159.68" y1="27.49" x2="154.43" y2="27.47"/></g></g></svg>